<svg width="86" height="86" viewBox="0 0 86 86" fill="none" xmlns="http://www.w3.org/2000/svg">
<rect width="86" height="86" rx="43" fill="white"/>
<path d="M61.0952 32.4344L58.1171 35.412L50.5933 27.8896L53.5715 24.912C55.9214 22.5625 59.5025 22.3532 61.5733 24.4236C62.6139 25.464 63.0814 26.8851 62.9883 28.3296C62.9079 29.7868 62.2648 31.265 61.0952 32.4344Z" fill="#FF3B30"/>
<path d="M54.2061 27.5172C54.1081 27.5172 54.0085 27.4953 53.9144 27.4494C53.5836 27.2882 53.4459 26.889 53.6074 26.558C54.5601 24.6054 56.7727 23.7182 58.538 24.5789C58.8688 24.7403 59.0065 25.1394 58.845 25.4703C58.6833 25.801 58.2847 25.9383 57.9532 25.7774C56.8489 25.2389 55.4362 25.8511 54.8062 27.1427C54.6906 27.3794 54.4532 27.5172 54.2061 27.5172Z" fill="white"/>
<path d="M26.565 51.8403L51.3315 27.1797L58.8753 34.7221L33.7871 59.6703M27.3645 61.2974L23 63.0005L24.5271 58.4604L27.3645 61.2974Z" fill="#152B3C"/>
<path d="M30.9186 51.8666L28.1266 51.8667L26.565 51.8398L24.5271 58.46L27.3644 61.2969L33.7871 59.6698L34.0058 57.6516L34.0069 54.9564L30.8559 55.3908L30.9186 51.8666Z" fill="#FCB814"/>
<path d="M58.6359 23.0391C58.9643 23.2359 59.2737 23.4705 59.5538 23.7506C60.5943 24.791 61.0618 26.2122 60.9687 27.6565C60.8884 29.1138 60.2452 30.5919 59.0756 31.7613L57.4438 33.3928L58.7902 34.739L61.0952 32.4344C62.2648 31.265 62.9079 29.7869 62.9884 28.3296C63.0815 26.8853 62.6139 25.4641 61.5734 24.4237C60.7688 23.6193 59.7355 23.1634 58.6359 23.0391Z" fill="black"/>
<path d="M50.8313 27.5785L54.9148 32.8156C55.6421 33.7484 55.5617 35.0766 54.7271 35.9148L34.0109 56.7231L33.7871 59.6703L58.8754 34.7221L51.3316 27.1797L50.8313 27.5785Z" fill="black"/>
<path d="M32.1863 58.8069L26.4084 60.3418L27.3643 61.2975L33.787 59.6704L34.0056 57.6522L34.0067 54.957L33.3264 55.0508L32.1863 58.8069Z" fill="black"/>
<path d="M34.3677 47.9696C34.2802 47.9698 34.1934 47.9526 34.1125 47.9191C34.0316 47.8855 33.9581 47.8364 33.8963 47.7744C33.6358 47.5141 33.6358 47.0919 33.8963 46.8316L48.8187 31.9121C49.0792 31.6517 49.5011 31.6517 49.7616 31.9121C50.022 32.1724 50.022 32.5946 49.7616 32.8548L34.8392 47.7744C34.7773 47.8364 34.7038 47.8856 34.6229 47.9191C34.542 47.9526 34.4553 47.9698 34.3677 47.9696Z" fill="white"/>
</svg>
