<svg width="86" height="86" viewBox="0 0 86 86" fill="none" xmlns="http://www.w3.org/2000/svg">
<rect width="86" height="86" rx="43" fill="white"/>
<path d="M60.5308 29.666H23.9875V56.3327H60.5308V29.666Z" fill="#F2F2F3"/>
<path d="M41.7654 29.666H23.9875V56.3327H41.7654V29.666Z" fill="#DEDDE0"/>
<path d="M26.4568 54.3575C27.275 54.3575 27.9383 53.6942 27.9383 52.876C27.9383 52.0578 27.275 51.3945 26.4568 51.3945C25.6386 51.3945 24.9753 52.0578 24.9753 52.876C24.9753 53.6942 25.6386 54.3575 26.4568 54.3575Z" fill="white"/>
<path d="M26.9506 51.8887H23V53.864H26.9506V51.8887Z" fill="#818085"/>
<path d="M26.4568 49.42C27.275 49.42 27.9383 48.7567 27.9383 47.9385C27.9383 47.1203 27.275 46.457 26.4568 46.457C25.6386 46.457 24.9753 47.1203 24.9753 47.9385C24.9753 48.7567 25.6386 49.42 26.4568 49.42Z" fill="white"/>
<path d="M26.9506 46.9492H23V48.9245H26.9506V46.9492Z" fill="#818085"/>
<path d="M26.4568 44.4805C27.275 44.4805 27.9383 43.8173 27.9383 42.9991C27.9383 42.1809 27.275 41.5176 26.4568 41.5176C25.6386 41.5176 24.9753 42.1809 24.9753 42.9991C24.9753 43.8173 25.6386 44.4805 26.4568 44.4805Z" fill="white"/>
<path d="M26.9506 42.0117H23V43.987H26.9506V42.0117Z" fill="#818085"/>
<path d="M26.4568 39.543C27.275 39.543 27.9383 38.8798 27.9383 38.0616C27.9383 37.2434 27.275 36.5801 26.4568 36.5801C25.6386 36.5801 24.9753 37.2434 24.9753 38.0616C24.9753 38.8798 25.6386 39.543 26.4568 39.543Z" fill="white"/>
<path d="M26.9506 37.0742H23V39.0495H26.9506V37.0742Z" fill="#818085"/>
<path d="M26.4568 34.6036C27.275 34.6036 27.9383 33.9403 27.9383 33.1221C27.9383 32.3039 27.275 31.6406 26.4568 31.6406C25.6386 31.6406 24.9753 32.3039 24.9753 33.1221C24.9753 33.9403 25.6386 34.6036 26.4568 34.6036Z" fill="white"/>
<path d="M26.9506 32.1348H23V34.1101H26.9506V32.1348Z" fill="#818085"/>
<path d="M58.0618 33.7812L60.5308 29.666L63 33.7812L60.5308 34.1927L58.0618 33.7812Z" fill="#FFD6A0"/>
<path d="M58.0618 33.7812L60.5308 29.666V33.7812H58.0618Z" fill="#FFC170"/>
<path d="M58.0618 51.8061V33.7812H63V51.8061L60.5308 52.2177L58.0618 51.8061Z" fill="#FF5023"/>
<path d="M60.5308 33.7812H58.0618V51.8059H60.5308V33.7812Z" fill="#D80027"/>
<path d="M59.5417 31.312L60.5309 29.666L61.5199 31.312H59.5417Z" fill="black"/>
<path d="M63 53.4529V53.8644C63 55.228 61.8945 56.3333 60.5308 56.3333C59.1673 56.3333 58.0618 55.2279 58.0618 53.8644V53.4529L60.5308 53.041L63 53.4529Z" fill="#FFDA44"/>
<path d="M60.5308 53.4531C60.5308 53.4531 60.5308 55.2498 60.5308 56.3335C59.1673 56.3335 58.0618 55.2281 58.0618 53.8646V53.4531H60.5308Z" fill="#FF9811"/>
<path d="M63 51.8066H58.0618V53.453H63V51.8066Z" fill="white"/>
<path d="M60.5308 51.8066H58.0618V53.453H60.5308V51.8066Z" fill="#DEDDE0"/>
<path d="M45.7159 42.5046L43.2946 46.1366L39.7901 40.5293L34.8518 48.4305H49.6666L45.7159 42.5046Z" fill="#786145"/>
<path d="M41.7629 43.6858L39.7901 40.5293L34.8518 48.4305H41.7629V43.6858Z" fill="#282017"/>
<path d="M44.2344 40.5294C45.0526 40.5294 45.7159 39.8661 45.7159 39.0479C45.7159 38.2297 45.0526 37.5664 44.2344 37.5664C43.4162 37.5664 42.7529 38.2297 42.7529 39.0479C42.7529 39.8661 43.4162 40.5294 44.2344 40.5294Z" fill="#FFDA44"/>
</svg>
