<svg width="86" height="86" viewBox="0 0 86 86" fill="none" xmlns="http://www.w3.org/2000/svg">
<rect width="86" height="86" rx="43" fill="white"/>
<g clip-path="url(#clip0_832_378)">
<path d="M53.6805 27.7135L38.5117 42.882C39.2732 42.9006 40.0161 43.0253 40.724 43.2499C41.3438 43.4466 41.936 43.7195 42.49 44.0641C43.0017 44.3823 43.4815 44.7599 43.9181 45.1964C44.3585 45.6368 44.7341 46.1177 45.0489 46.6256C45.3962 47.1857 45.667 47.7796 45.8617 48.393C46.0896 49.1116 46.213 49.8562 46.2315 50.6034L61.4009 35.4338C62.4321 34.4028 63 33.0318 63 31.5734C63 30.1154 62.432 28.7444 61.4009 27.7133C59.2727 25.5851 55.8092 25.5852 53.6805 27.7135Z" fill="#D8143A"/>
<path d="M61.4011 27.7134L61.4009 27.7133C59.2727 25.5851 55.8091 25.5852 53.6803 27.7135L38.5117 42.8821C39.2732 42.9007 40.0161 43.0254 40.724 43.25C41.3438 43.4466 41.936 43.7196 42.49 44.0641C43.0017 44.3824 43.4815 44.76 43.9181 45.1965C44.3585 45.6369 44.7341 46.1178 45.0489 46.6256C45.3962 47.1859 45.667 47.7796 45.8617 48.393C46.0896 49.1116 46.213 49.8562 46.2315 50.6034L61.4009 35.434C62.4321 34.403 63 33.032 63 31.5736C63.0001 30.1155 62.4321 28.7446 61.4011 27.7134Z" fill="#FF3F62"/>
<path d="M61.4009 27.7133C59.2727 25.5851 55.8091 25.5852 53.6803 27.7135L38.5117 42.882C39.2732 42.9006 40.0161 43.0253 40.724 43.2499C41.3438 43.4466 41.936 43.7195 42.49 44.0641C43.0017 44.3823 43.4815 44.7599 43.9181 45.1964L61.4011 27.7134C61.4011 27.7134 61.4011 27.7133 61.4009 27.7133Z" fill="#D8143A"/>
<path d="M46.3683 50.4664C46.3497 49.7191 46.2265 48.9747 45.9985 48.2559C45.8038 47.6426 45.533 47.0487 45.1857 46.4886C44.8709 45.9808 44.4954 45.4999 44.0549 45.0595L44.0547 45.0592C43.6179 44.6228 43.1384 44.2454 42.6267 43.9271C42.0727 43.5827 41.4805 43.3096 40.8607 43.113C40.1528 42.8884 39.4098 42.7637 38.6484 42.7451C38.582 42.7435 38.5158 42.7402 38.4493 42.7402C36.3299 42.7402 34.3393 43.5639 32.8437 45.0591C31.5584 46.3448 29.8459 47.0526 28.0219 47.0526C27.1508 47.0526 26.3011 46.8909 25.4969 46.5718C24.9137 46.3407 24.2535 46.425 23.7476 46.7948C23.2417 47.1646 22.9608 47.7681 23.0041 48.3935C23.2094 51.3677 24.482 54.1652 26.5875 56.2703C27.6736 57.3566 28.9278 58.215 30.2919 58.8222C31.8532 59.5173 33.5583 59.883 35.321 59.8829C38.6232 59.8829 41.7249 58.6 44.0546 56.2705C45.6506 54.6744 46.4202 52.5619 46.3683 50.4664Z" fill="black"/>
<path d="M42.6269 43.9271C42.073 43.5826 41.4808 43.3096 40.8609 43.113C40.153 42.8884 39.4101 42.7637 38.6487 42.7451C38.5823 42.7435 38.5161 42.7402 38.4495 42.7402C36.3301 42.7404 34.3395 43.5639 32.844 45.0591C31.5587 46.3448 29.846 47.0526 28.0221 47.0526C27.151 47.0526 26.3013 46.8909 25.4971 46.5718C24.9139 46.3407 24.2537 46.425 23.7479 46.7948C23.2419 47.1646 22.9611 47.7681 23.0044 48.3935C23.2097 51.3677 24.4823 54.1652 26.5877 56.2703C27.6738 57.3566 28.928 58.215 30.2921 58.822L44.0548 45.0593C43.6182 44.6228 43.1386 44.2454 42.6269 43.9271Z" fill="#141618"/>
</g>
<defs>
<clipPath id="clip0_832_378">
<rect width="40" height="40" fill="white" transform="translate(23 23)"/>
</clipPath>
</defs>
</svg>
