<svg width="86" height="86" viewBox="0 0 86 86" fill="none" xmlns="http://www.w3.org/2000/svg">
<rect width="86" height="86" rx="43" fill="white"/>
<path d="M44.5967 62.4009C33.8805 62.4009 25.1931 53.7137 25.1931 42.9973C25.1931 32.281 33.8805 23.5938 44.5967 23.5938V26.8194V62.4009Z" fill="#57545C"/>
<path opacity="0.43" d="M28.1655 45.9701C28.1655 50.5711 31.7582 52.8068 34.434 56.1328C37.7599 58.8086 39.9957 55.9067 44.5967 55.9067V26.8197V26.793C35.2914 28.2235 28.1655 36.2646 28.1655 45.9701Z" fill="#1D1D20"/>
<path d="M40.4334 29.8125C41.6835 29.5872 42.9583 29.3613 44.2842 29.3613C53.4093 29.3613 60.8066 36.7587 60.8066 45.8838C60.8066 55.0089 53.4093 62.4063 44.2842 62.4063C35.1591 62.4063 27.7617 55.0089 27.7617 45.8838C27.7617 39.6478 31.2164 34.2188 36.3163 31.406C36.3163 31.406 38.6275 30.1379 40.4334 29.8125Z" fill="#D7D5D9"/>
<path opacity="0.45" d="M44.2122 41.2261C46.6456 41.2261 48.6182 39.2535 48.6182 36.8201C48.6182 34.3867 46.6456 32.4141 44.2122 32.4141C41.7788 32.4141 39.8062 34.3867 39.8062 36.8201C39.8062 39.2535 41.7788 41.2261 44.2122 41.2261Z" fill="#2F2D30"/>
<path opacity="0.45" d="M44.2122 59.2398C46.6456 59.2398 48.6182 57.2671 48.6182 54.8338C48.6182 52.4004 46.6456 50.4277 44.2122 50.4277C41.7788 50.4277 39.8062 52.4004 39.8062 54.8338C39.8062 57.2671 41.7788 59.2398 44.2122 59.2398Z" fill="#2F2D30"/>
<path opacity="0.45" d="M35.3311 50.3589C37.7645 50.3589 39.7371 48.3863 39.7371 45.9529C39.7371 43.5195 37.7645 41.5469 35.3311 41.5469C32.8977 41.5469 30.925 43.5195 30.925 45.9529C30.925 48.3863 32.8977 50.3589 35.3311 50.3589Z" fill="#2F2D30"/>
<path opacity="0.45" d="M53.6807 50.3589C56.1141 50.3589 58.0867 48.3863 58.0867 45.9529C58.0867 43.5195 56.1141 41.5469 53.6807 41.5469C51.2473 41.5469 49.2747 43.5195 49.2747 45.9529C49.2747 48.3863 51.2473 50.3589 53.6807 50.3589Z" fill="#2F2D30"/>
<path opacity="0.99" d="M48.2209 35.7437C45.6216 34.7185 42.7076 34.7314 40.1162 35.7823H39.9303C39.8498 36.1153 39.8062 36.4628 39.8062 36.8205C39.8062 39.2539 41.7787 41.2265 44.2121 41.2265C46.6455 41.2265 48.6181 39.2539 48.6181 36.8205C48.6181 36.4489 48.5716 36.0883 48.485 35.7436H48.2209L48.2209 35.7437Z" fill="#E83030"/>
<path opacity="0.99" d="M40.2033 55.9047C42.8026 56.9299 45.7165 56.917 48.3079 55.8661H48.4938C48.5743 55.5331 48.618 55.1856 48.618 54.8279C48.618 52.3945 46.6454 50.4219 44.2119 50.4219C41.7785 50.4219 39.8059 52.3945 39.8059 54.8279C39.8059 55.1995 39.8524 55.5601 39.939 55.9048H40.2031V55.9047H40.2033Z" fill="#E83030"/>
<path opacity="0.99" d="M54.7577 49.9616C55.7829 47.3623 55.77 44.4483 54.7191 41.857V41.671C54.3861 41.5905 54.0387 41.5469 53.6809 41.5469C51.2476 41.5469 49.2749 43.5195 49.2749 45.9528C49.2749 48.3862 51.2476 50.3588 53.6809 50.3588C54.0525 50.3588 54.4131 50.3124 54.7578 50.2257V49.9617H54.7577V49.9616Z" fill="#E83030"/>
<path opacity="0.99" d="M34.2542 41.9441C33.229 44.5434 33.2419 47.4574 34.2928 50.0488V50.2347C34.6258 50.3152 34.9733 50.3588 35.331 50.3588C37.7644 50.3588 39.7369 48.3863 39.7369 45.9528C39.7369 43.5194 37.7643 41.5469 35.331 41.5469C34.9594 41.5469 34.5988 41.5934 34.2541 41.68V41.9441L34.2542 41.9441Z" fill="#E83030"/>
<path d="M44.2121 47.6206C45.1715 47.6206 45.9492 46.8429 45.9492 45.8835C45.9492 44.9242 45.1715 44.1465 44.2121 44.1465C43.2528 44.1465 42.4751 44.9242 42.4751 45.8835C42.4751 46.8429 43.2528 47.6206 44.2121 47.6206Z" fill="#57545C"/>
<path opacity="0.19" d="M52.8611 31.6836C54.3361 34.1564 55.1843 37.0463 55.1843 40.1348C55.1843 49.2599 47.787 56.6572 38.6619 56.6572C35.5734 56.6572 32.6835 55.809 30.2107 54.334C33.0937 59.1673 38.3732 62.4053 44.4099 62.4053C53.535 62.4053 60.9323 55.0079 60.9323 45.8828C60.9324 39.8461 57.6944 34.5666 52.8611 31.6836Z" fill="#2F2D30"/>
<path d="M56.3873 33.7806C53.1543 30.5477 48.856 28.7673 44.2842 28.7673C42.9363 28.7673 41.5945 28.9245 40.2955 29.2345C39.9764 29.3107 39.7795 29.6311 39.8557 29.9501C39.9319 30.2692 40.2523 30.4662 40.5713 30.3899C41.78 30.1013 43.0292 29.9551 44.2842 29.9551C53.0671 29.9551 60.2126 37.1006 60.2126 45.8836C60.2126 54.5562 53.2455 61.6313 44.6145 61.808C44.6085 61.8079 44.6026 61.8072 44.5966 61.8072C43.1853 61.8072 41.8104 61.6498 40.4872 61.3537C33.5317 59.6462 28.3557 53.3585 28.3557 45.8837C28.3557 40.08 31.5159 34.7318 36.6031 31.926C36.8903 31.7675 36.9948 31.4063 36.8363 31.1191C36.6779 30.8319 36.3166 30.7275 36.0295 30.8859C30.5634 33.9005 27.1677 39.6474 27.1677 45.8837C27.1677 48.4536 27.7303 50.9369 28.797 53.1932C26.8936 50.2537 25.7869 46.7526 25.7869 42.9975C25.7869 32.8246 33.9048 24.512 44.0026 24.1972V26.8196C44.0026 27.1477 44.2685 27.4135 44.5965 27.4135C44.9246 27.4135 45.1904 27.1477 45.1904 26.8196V23.5939C45.1904 23.2659 44.9246 23 44.5965 23C39.2551 23 34.2332 25.0802 30.4562 28.8571C26.6792 32.6341 24.5991 37.656 24.5991 42.9975C24.5991 48.339 26.6793 53.3608 30.4562 57.1378C33.1856 59.8671 36.5652 61.7098 40.2454 62.5223C41.5524 62.837 42.9056 63 44.2841 63C48.856 63 53.1543 61.2196 56.3872 57.9866C59.62 54.7538 61.4005 50.4554 61.4005 45.8836C61.4005 41.3117 59.6201 37.0135 56.3873 33.7806Z" fill="black"/>
<path d="M44.2121 31.8203C41.4551 31.8203 39.2122 34.0633 39.2122 36.8203C39.2122 39.5772 41.4551 41.8203 44.2121 41.8203C46.969 41.8203 49.212 39.5773 49.212 36.8203C49.212 34.0632 46.969 31.8203 44.2121 31.8203ZM44.2121 33.0081C45.5981 33.0081 46.8134 33.752 47.4808 34.8611C45.3407 34.2256 43.0794 34.2263 40.9422 34.8634C41.6091 33.753 42.8251 33.0081 44.2121 33.0081ZM44.2121 40.6323C42.1101 40.6323 40.4001 38.9222 40.4001 36.8202C40.4001 36.6417 40.4133 36.4662 40.4372 36.2941C42.8719 35.335 45.5476 35.3325 47.9864 36.2895C48.0107 36.4631 48.0241 36.6401 48.0241 36.8202C48.0241 38.9222 46.3141 40.6323 44.2121 40.6323Z" fill="black"/>
<path d="M44.2121 59.8338C46.969 59.8338 49.212 57.5909 49.212 54.8339C49.212 52.077 46.969 49.834 44.2121 49.834C41.4551 49.834 39.2122 52.077 39.2122 54.8339C39.2122 57.5908 41.4551 59.8338 44.2121 59.8338ZM44.2121 58.646C42.8808 58.646 41.7073 57.9595 41.0254 56.9224C42.0696 57.2243 43.1435 57.3759 44.2174 57.3759C45.2873 57.3759 46.3569 57.226 47.396 56.9268C46.7137 57.9614 45.5415 58.646 44.2121 58.646ZM44.2121 51.0219C46.314 51.0219 48.0241 52.732 48.0241 54.8339C48.0241 55.0543 48.0043 55.27 47.9682 55.4802C45.5855 56.41 42.9572 56.424 40.5636 55.5184C40.5286 55.5052 40.4931 55.4958 40.4576 55.4894C40.4204 55.2763 40.4 55.0575 40.4 54.8339C40.4001 52.732 42.1101 51.0219 44.2121 51.0219Z" fill="black"/>
<path d="M35.331 40.9531C32.574 40.9531 30.3311 43.1961 30.3311 45.9531C30.3311 48.71 32.574 50.9531 35.331 50.9531C38.0879 50.9531 40.3309 48.7101 40.3309 45.9531C40.3309 43.196 38.0879 40.9531 35.331 40.9531ZM31.5189 45.953C31.5189 44.6691 32.1576 43.5323 33.1333 42.8412C32.5689 44.8941 32.5852 47.0538 33.1832 49.1004C32.1792 48.4131 31.5189 47.2588 31.5189 45.953ZM35.331 49.7651C35.0961 49.7651 34.8663 49.7426 34.643 49.7017C34.6393 49.6905 34.6361 49.6793 34.6318 49.6682C33.6843 47.2663 33.6697 44.6243 34.5865 42.2145C34.8274 42.1666 35.0762 42.1409 35.3311 42.1409C37.433 42.1409 39.1431 43.851 39.1431 45.953C39.1431 48.0549 37.4329 49.7651 35.331 49.7651Z" fill="black"/>
<path d="M53.6809 50.9531C56.4378 50.9531 58.6808 48.7101 58.6808 45.9531C58.6808 43.1962 56.4379 40.9531 53.6809 40.9531C50.924 40.9531 48.6809 43.1961 48.6809 45.9531C48.6809 48.7101 50.9239 50.9531 53.6809 50.9531ZM57.493 45.9531C57.493 47.541 56.5168 48.9046 55.1333 49.477C55.8843 47.1967 55.9033 44.7464 55.1858 42.4513C56.5415 43.0362 57.493 44.3854 57.493 45.9531ZM53.6809 42.1411C53.7359 42.1411 53.7905 42.1429 53.845 42.1452C53.8497 42.1957 53.8604 42.2463 53.8788 42.2962C54.7714 44.7062 54.7355 47.3459 53.778 49.7292C53.7735 49.7405 53.7701 49.7518 53.7664 49.7631C53.7379 49.7638 53.7096 49.7653 53.681 49.7653C51.579 49.7653 49.8689 48.0551 49.8689 45.9531C49.8689 43.8512 51.5789 42.1411 53.6809 42.1411Z" fill="black"/>
<path d="M46.5429 45.8837C46.5429 44.5984 45.4973 43.5527 44.212 43.5527C42.9268 43.5527 41.8811 44.5984 41.8811 45.8837C41.8811 47.169 42.9267 48.2146 44.212 48.2146C45.4973 48.2145 46.5429 47.1689 46.5429 45.8837ZM43.069 45.8837C43.069 45.2534 43.5817 44.7405 44.2121 44.7405C44.8425 44.7405 45.3551 45.2534 45.3551 45.8837C45.3551 46.5139 44.8424 47.0268 44.2121 47.0268C43.5819 47.0268 43.069 46.514 43.069 45.8837Z" fill="black"/>
</svg>
