<svg width="86" height="86" viewBox="0 0 86 86" fill="none" xmlns="http://www.w3.org/2000/svg">
<rect width="86" height="86" rx="43" fill="white"/>
<path d="M43 27.375C34.3706 27.375 27.375 34.3706 27.375 43H58.625C58.625 34.3706 51.6294 27.375 43 27.375Z" fill="#E83030"/>
<path d="M43 58.625C51.6294 58.625 58.625 51.6294 58.625 43H27.375C27.375 51.6294 34.3706 58.625 43 58.625Z" fill="#E83030"/>
<path d="M61.28 37.9554C61.5313 38.0267 61.5882 38.2898 61.3994 38.5492L50.5738 53.4098C50.385 53.6692 50.03 53.8154 49.7788 53.7442L23.2325 46.2167C22.9769 46.1442 22.9244 45.8823 23.1132 45.6229L33.9388 30.7629C34.1275 30.5035 34.4788 30.356 34.7338 30.4285L61.28 37.9554ZM59.4706 39.6817C59.845 39.1673 59.7388 38.6379 59.2319 38.4942L35.43 31.7454C34.9232 31.6017 34.2138 31.8998 33.8394 32.4142L32.4875 34.2704C32.1132 34.7848 32.2163 35.3185 32.7232 35.4617L56.525 42.2104C57.0319 42.3542 57.7444 42.0517 58.1188 41.5373L59.4706 39.6817ZM43.1888 44.5923C43.3744 44.3373 43.325 44.071 43.0694 43.9985L39.4069 42.9598C39.1557 42.8885 38.7975 43.0392 38.6119 43.2942L35.2288 47.9385C35.0432 48.1935 35.0969 48.461 35.3482 48.5323L39.0107 49.571C39.2663 49.6435 39.62 49.4917 39.8057 49.2367L43.1888 44.5923ZM45.5582 41.3404C45.7438 41.0854 45.6944 40.8192 45.4388 40.7467L41.7763 39.7079C41.525 39.6367 41.1669 39.7873 40.9813 40.0423L39.9675 41.4342C39.7788 41.6935 39.8325 41.961 40.0838 42.0323L43.7463 43.071C44.0019 43.1435 44.3557 42.9917 44.5444 42.7323L45.5582 41.3404ZM43.04 28.711C42.7888 28.6398 42.4307 28.7904 42.245 29.0454L41.5688 29.9735C41.38 30.2329 41.4369 30.496 41.6882 30.5673L58.1663 35.2398C58.4175 35.311 58.7725 35.1648 58.9613 34.9054L59.6375 33.9773C59.8232 33.7223 59.7694 33.4548 59.5182 33.3835L43.04 28.711Z" fill="#4D4D4D"/>
<path d="M38.277 37.5141L38.7732 38.3023C39.5607 39.5529 39.3682 41.381 38.0701 43.1629C36.1088 45.8548 32.362 47.4304 29.7088 46.6779C28.812 46.4235 28.1545 45.9354 27.752 45.2973L27.2563 44.5091C27.6588 45.1479 28.3163 45.6354 29.2132 45.8898C31.8663 46.6423 35.6132 45.0666 37.5745 42.3748C38.8726 40.5923 39.0651 38.7641 38.277 37.5141ZM53.4545 46.8773C51.4932 49.5691 47.7463 51.1448 45.0932 50.3923C44.1963 50.1379 43.5388 49.6498 43.1363 49.0116L43.6326 49.7998C44.0351 50.4385 44.6926 50.926 45.5895 51.1804C48.2426 51.9329 51.9895 50.3573 53.9507 47.6654C55.2488 45.8835 55.4413 44.0554 54.6538 42.8048L54.1576 42.0166C54.9451 43.2673 54.7526 45.0954 53.4545 46.8773ZM39.4076 42.9598C39.1563 42.8885 38.7982 43.0391 38.6126 43.2941L35.2295 47.9385C35.0438 48.1935 35.0976 48.461 35.3488 48.5323L39.0113 49.571C39.267 49.6435 39.6207 49.4916 39.8063 49.2366L43.1895 44.5923C43.3751 44.3373 43.3257 44.071 43.0701 43.9985L39.4076 42.9598ZM62.2576 35.2885L62.0095 34.8948C62.1601 35.1335 62.1238 35.4816 61.8776 35.8191L60.4857 37.7298L60.9295 37.8554L62.1263 36.2129C62.372 35.8754 62.4082 35.5273 62.2576 35.2885ZM60.9595 35.5585L59.352 35.1029L59.2095 35.2985C59.1907 35.3241 59.1645 35.3435 59.1426 35.3666L60.7645 35.8266L60.9595 35.5585ZM41.5307 30.0491L39.9051 29.5879L38.5132 31.4985L38.957 31.6241L40.1538 29.9816L41.4726 30.3554C41.4476 30.2666 41.4701 30.1598 41.5307 30.0491Z" fill="#666666"/>
<path d="M59.885 34.3712L59.2087 35.2993C59.02 35.5587 58.665 35.7049 58.4137 35.6337L41.9356 30.9612C41.85 30.9368 41.7868 30.8905 41.7487 30.8293L41.5006 30.4355C41.5393 30.4968 41.6018 30.543 41.6875 30.5674L58.1656 35.2399C58.4168 35.3112 58.7718 35.1649 58.9606 34.9055L59.6368 33.9774C59.76 33.8087 59.7781 33.6337 59.7031 33.5149L59.9512 33.9087C60.0262 34.0274 60.0087 34.2024 59.885 34.3712ZM62.9556 40.4512L61.4668 38.0874C61.5412 38.2055 61.5237 38.378 61.3993 38.5493L50.5737 53.4099C50.5737 53.4099 50.1693 53.8468 49.7787 53.7443L23.2325 46.2168C23.1456 46.1924 23.0818 46.1455 23.0437 46.0843L24.5325 48.448C24.5706 48.5093 24.6343 48.5555 24.7212 48.5805L51.2668 56.108C51.5181 56.1793 51.8731 56.033 52.0618 55.7737L62.8881 40.913C63.0125 40.7418 63.03 40.5693 62.9556 40.4512ZM28.8737 39.908C27.2875 42.0862 27.7425 44.3537 29.8887 44.9624C32.035 45.5712 35.0687 44.2924 36.655 42.1149C38.2412 39.9374 37.7868 37.6749 35.6406 37.0662C33.495 36.4574 30.46 37.7305 28.8737 39.908ZM32.3775 42.3037C31.755 42.1537 31.61 41.4605 32.0787 40.8168C32.5443 40.1774 33.44 39.8005 34.0706 39.9793C34.7006 40.158 34.835 40.8268 34.3693 41.4662C33.9 42.1105 33 42.4537 32.3775 42.3037ZM47.8006 46.6774C47.1662 46.4974 47.0331 45.8343 47.5018 45.1905C47.9675 44.5512 48.8593 44.173 49.4937 44.353C50.1237 44.5318 50.2581 45.2005 49.7925 45.8399C49.3262 46.4793 48.435 46.8574 47.8006 46.6774ZM44.7537 44.4112C43.1675 46.5893 43.6225 48.8568 45.7687 49.4655C47.915 50.0743 50.9487 48.7955 52.535 46.618C54.1212 44.4405 53.6668 42.178 51.5206 41.5693C49.3743 40.9605 46.3406 42.2337 44.7537 44.4112Z" fill="#3A3A3A"/>
<path d="M59.2319 38.4945C59.7388 38.6382 59.845 39.1676 59.4706 39.682L58.1188 41.5382C57.7444 42.0526 57.0319 42.3545 56.525 42.2113L32.7225 35.4613C32.2156 35.3176 32.1125 34.7838 32.4869 34.2701L33.8388 32.4138C34.2131 31.8995 34.9225 31.6013 35.4294 31.7451L59.2319 38.4945ZM32.0788 40.817C31.61 41.4607 31.7469 42.1251 32.3775 42.3038C33.0075 42.4826 33.9 42.1101 34.3694 41.4663C34.835 40.827 34.7013 40.1582 34.0706 39.9795C33.44 39.8007 32.5444 40.177 32.0788 40.817ZM47.5019 45.1901C47.0331 45.8338 47.1663 46.497 47.8006 46.677C48.4306 46.8557 49.3238 46.4832 49.7925 45.8395C50.2581 45.2001 50.1244 44.5313 49.4938 44.3526C48.8594 44.1726 47.9675 44.5507 47.5019 45.1901Z" fill="#CCCCCC"/>
<path d="M45.4388 40.746C45.6944 40.8185 45.7438 41.0847 45.5581 41.3397L44.5444 42.7316C44.3556 42.991 44.0013 43.1429 43.7463 43.0704L40.0838 42.0316C39.8325 41.9604 39.7788 41.6929 39.9675 41.4335L40.9813 40.0416C41.1669 39.7866 41.525 39.636 41.7763 39.7072L45.4388 40.746ZM61.635 34.6304L59.9806 34.1616C59.965 34.2297 59.9363 34.3004 59.885 34.371L59.3519 35.1029L60.9594 35.5585L59.57 37.4704L60.4863 37.7304L61.8781 35.8197C62.2494 35.3085 62.1419 34.7741 61.635 34.6304ZM42.1919 29.1172L40.5806 28.6604C40.0781 28.5179 39.3613 28.8191 38.99 29.3291L37.5981 31.2397L38.5125 31.4991L39.9044 29.5885L41.53 30.0497C41.5444 30.0235 42.1919 29.1172 42.1919 29.1172ZM27.9594 39.6485C25.9981 42.3404 26.56 45.1379 29.2131 45.8897C31.8663 46.6422 35.6131 45.0666 37.5744 42.3747C39.5356 39.6829 38.9738 36.8854 36.3206 36.1335C33.6675 35.381 29.92 36.956 27.9594 39.6485ZM29.8888 44.9616C27.7344 44.4072 27.2869 42.0854 28.8738 39.9072C30.4606 37.7291 33.495 36.4566 35.6413 37.0647C37.7875 37.6735 38.2294 39.9266 36.6556 42.1135C34.9594 44.4704 32.0431 45.516 29.8888 44.9616ZM43.8394 44.151C41.8781 46.8429 42.44 49.6404 45.0931 50.3922C47.7463 51.1447 51.4931 49.5691 53.4544 46.8772C55.4156 44.1854 54.8538 41.3879 52.2006 40.636C49.5475 39.8841 45.8006 41.4591 43.8394 44.151ZM45.7694 49.4647C43.5975 48.8591 43.1675 46.5885 44.7544 44.4104C46.3406 42.2322 49.3756 40.9597 51.5219 41.5679C53.6681 42.176 54.1225 44.4385 52.5363 46.6166C50.95 48.7947 47.9413 50.0697 45.7694 49.4647Z" fill="#808080"/>
</svg>
