<svg width="36" height="53" viewBox="0 0 36 53" fill="none" xmlns="http://www.w3.org/2000/svg">
<g filter="url(#filter0_di_801_1165)">
<path d="M27.6156 1.40737C23.3884 1.78473 10.1783 3.57718 7.85337 4.14322C6.26816 4.52058 5.95112 5.74699 5.95112 10.5583C5.95112 20.9357 6.47952 22.0678 12.1863 23.3885C22.0145 25.6527 24.4452 26.6904 24.1281 28.6715C23.177 34.898 23.3884 34.7093 15.0396 34.7093C9.64994 34.7093 7.00793 34.3319 6.69089 33.4829C6.47952 32.9168 5.95112 34.1432 5.42272 36.4074C5 38.6715 4.89432 40.6527 5.10568 40.747C5.21136 40.9357 11.2351 41.3131 18.4214 41.5961L31.3144 42.1621V39.898C31.3144 35.0866 28.9894 22.9168 27.9326 22.3508C27.2986 21.9734 23.4941 21.4074 19.4782 21.1244C11.2351 20.3696 10.6011 19.8036 11.9749 13.7659L12.926 9.70926L19.6896 9.99228C23.4941 10.181 27.2986 10.464 28.3554 10.747C29.7292 11.1244 30.1519 10.2753 30.786 6.40737C31.2087 3.76586 31.3144 1.50171 31.2087 1.40737C30.9974 1.21869 29.4122 1.31303 27.6156 1.40737Z" fill="url(#paint0_linear_801_1165)"/>
<path d="M27.6156 1.40737C23.3884 1.78473 10.1783 3.57718 7.85337 4.14322C6.26816 4.52058 5.95112 5.74699 5.95112 10.5583C5.95112 20.9357 6.47952 22.0678 12.1863 23.3885C22.0145 25.6527 24.4452 26.6904 24.1281 28.6715C23.177 34.898 23.3884 34.7093 15.0396 34.7093C9.64994 34.7093 7.00793 34.3319 6.69089 33.4829C6.47952 32.9168 5.95112 34.1432 5.42272 36.4074C5 38.6715 4.89432 40.6527 5.10568 40.747C5.21136 40.9357 11.2351 41.3131 18.4214 41.5961L31.3144 42.1621V39.898C31.3144 35.0866 28.9894 22.9168 27.9326 22.3508C27.2986 21.9734 23.4941 21.4074 19.4782 21.1244C11.2351 20.3696 10.6011 19.8036 11.9749 13.7659L12.926 9.70926L19.6896 9.99228C23.4941 10.181 27.2986 10.464 28.3554 10.747C29.7292 11.1244 30.1519 10.2753 30.786 6.40737C31.2087 3.76586 31.3144 1.50171 31.2087 1.40737C30.9974 1.21869 29.4122 1.31303 27.6156 1.40737Z" stroke="white"/>
</g>
<defs>
<filter id="filter0_di_801_1165" x="0.5" y="-1.20117" width="35.3145" height="53.8848" filterUnits="userSpaceOnUse" color-interpolation-filters="sRGB">
<feFlood flood-opacity="0" result="BackgroundImageFix"/>
<feColorMatrix in="SourceAlpha" type="matrix" values="0 0 0 0 0 0 0 0 0 0 0 0 0 0 0 0 0 0 127 0" result="hardAlpha"/>
<feOffset dy="6"/>
<feGaussianBlur stdDeviation="2"/>
<feComposite in2="hardAlpha" operator="out"/>
<feColorMatrix type="matrix" values="0 0 0 0 0 0 0 0 0 0 0 0 0 0 0 0 0 0 0.5 0"/>
<feBlend mode="normal" in2="BackgroundImageFix" result="effect1_dropShadow_801_1165"/>
<feBlend mode="normal" in="SourceGraphic" in2="effect1_dropShadow_801_1165" result="shape"/>
<feColorMatrix in="SourceAlpha" type="matrix" values="0 0 0 0 0 0 0 0 0 0 0 0 0 0 0 0 0 0 127 0" result="hardAlpha"/>
<feOffset dx="6" dy="-2"/>
<feGaussianBlur stdDeviation="1.1"/>
<feComposite in2="hardAlpha" operator="arithmetic" k2="-1" k3="1"/>
<feColorMatrix type="matrix" values="0 0 0 0 0 0 0 0 0 0 0 0 0 0 0 0 0 0 0.25 0"/>
<feBlend mode="normal" in2="shape" result="effect2_innerShadow_801_1165"/>
</filter>
<linearGradient id="paint0_linear_801_1165" x1="18.1572" y1="42.1621" x2="18.1572" y2="1.29844" gradientUnits="userSpaceOnUse">
<stop stop-color="#3D0404"/>
<stop offset="1" stop-color="#E83030"/>
</linearGradient>
</defs>
</svg>
